<svg width="402" height="421" viewBox="0 0 402 421" fill="none" xmlns="http://www.w3.org/2000/svg">
<path d="M232.549 95.9488H221.354C139.011 95.9488 72.2582 160.166 72.2582 239.383C72.2582 318.599 139.011 382.816 221.354 382.816H232.549C314.893 382.816 381.646 318.599 381.646 239.383C381.646 160.166 314.893 95.9488 232.549 95.9488Z" fill="#C8A587"/>
<g opacity="0.5">
<path opacity="0.5" d="M374.956 290.195C375.576 286.068 369.281 282.686 364.555 282.327C362.299 282.166 359.955 282.479 357.776 281.79C353.146 280.305 351.297 274.773 346.783 273.01C343.404 271.694 339.52 272.867 336.247 274.388C332.973 275.91 329.739 277.835 326.078 278.049C322.902 278.237 319.444 277.154 316.664 278.586C314.592 279.651 313.498 281.862 311.59 283.16C309.681 284.458 307.28 284.709 304.956 284.825C302.632 284.941 300.239 284.959 298.128 285.854C296.016 286.749 294.255 288.817 294.7 290.929L374.956 290.195Z" fill="white"/>
<path opacity="0.5" d="M149.889 242.615C150.47 238.739 144.575 235.56 140.15 235.224C138.037 235.073 135.842 235.367 133.802 234.72C129.467 233.324 127.735 228.128 123.51 226.472C120.345 225.235 116.708 226.336 113.644 227.766C110.579 229.195 107.55 231.004 104.122 231.205C101.147 231.382 97.9099 230.364 95.3073 231.71C93.3667 232.71 92.3419 234.787 90.5554 236.006C88.769 237.226 86.5201 237.461 84.3437 237.57C82.1673 237.679 79.9274 237.697 77.9505 238.537C75.9736 239.378 74.3232 241.32 74.7404 243.305L149.889 242.615Z" fill="white"/>
<path opacity="0.5" d="M362.881 142.457C363.347 139.331 358.615 136.768 355.061 136.497C353.364 136.375 351.601 136.612 349.964 136.09C346.483 134.964 345.092 130.773 341.699 129.438C339.158 128.441 336.238 129.329 333.776 130.482C331.315 131.635 328.883 133.093 326.131 133.255C323.742 133.398 321.143 132.578 319.053 133.663C317.495 134.469 316.672 136.144 315.237 137.128C313.803 138.111 311.997 138.3 310.249 138.389C308.502 138.477 306.704 138.49 305.116 139.168C303.528 139.846 302.203 141.413 302.538 143.013L362.881 142.457Z" fill="white"/>
<path opacity="0.5" d="M168.306 155.344C168.772 152.218 164.038 149.655 160.486 149.384C158.788 149.261 157.026 149.498 155.388 148.976C151.907 147.85 150.517 143.66 147.123 142.324C144.582 141.328 141.662 142.216 139.201 143.369C136.74 144.521 134.308 145.979 131.555 146.142C129.167 146.285 126.567 145.464 124.478 146.549C122.919 147.356 122.096 149.031 120.662 150.014C119.227 150.997 117.422 151.187 115.674 151.275C113.926 151.363 112.127 151.377 110.54 152.054C108.953 152.733 107.627 154.299 107.963 155.899L168.306 155.344Z" fill="white"/>
<path opacity="0.5" d="M351.402 204.539C351.845 201.583 347.348 199.158 343.973 198.902C342.361 198.786 340.903 196.715 339.347 196.22C336.039 195.156 334.11 198.251 330.887 196.987C327.171 200.982 324.29 196.987 321.268 197.415C318.93 198.504 319.104 195.682 316.489 195.835C314.219 195.971 311.75 195.194 309.765 196.22C308.284 196.984 307.503 198.568 306.14 199.498C304.777 200.428 303.061 200.607 301.401 200.691C299.741 200.775 298.033 200.788 296.524 201.429C295.016 202.07 293.757 203.552 294.076 205.065L351.402 204.539Z" fill="white"/>
</g>
<g opacity="0.2">
<path opacity="0.2" d="M204.365 199.535C232.311 190.438 247.013 162.057 237.202 136.145C227.392 110.232 196.783 96.5999 168.835 105.697C140.888 114.794 126.186 143.175 135.998 169.087C145.809 195 176.418 208.632 204.365 199.535Z" fill="#FFF2E7"/>
<path opacity="0.2" d="M171.763 154.725C170.243 155.502 168.509 155.843 166.781 155.706C165.052 155.569 163.405 154.959 162.051 153.955C160.695 152.95 159.692 151.596 159.167 150.063C158.641 148.529 158.619 146.886 159.101 145.34C159.584 143.795 160.549 142.416 161.876 141.381C163.203 140.344 164.832 139.696 166.556 139.516C168.28 139.338 170.024 139.639 171.564 140.378C173.104 141.118 174.374 142.266 175.212 143.675C175.771 144.61 176.125 145.638 176.253 146.7C176.382 147.762 176.284 148.837 175.963 149.864C175.643 150.891 175.107 151.849 174.387 152.683C173.665 153.517 172.774 154.211 171.763 154.725Z" fill="white"/>
<path opacity="0.2" d="M187.946 133.274C187.062 133.723 186.055 133.919 185.051 133.839C184.048 133.758 183.093 133.403 182.306 132.819C181.52 132.235 180.939 131.448 180.634 130.557C180.33 129.667 180.317 128.712 180.598 127.816C180.878 126.919 181.438 126.118 182.209 125.517C182.979 124.915 183.925 124.538 184.926 124.434C185.927 124.33 186.939 124.503 187.834 124.932C188.728 125.361 189.466 126.026 189.954 126.843C190.278 127.388 190.484 127.986 190.559 128.604C190.634 129.222 190.576 129.848 190.389 130.445C190.203 131.043 189.891 131.6 189.471 132.085C189.052 132.571 188.534 132.974 187.946 133.274Z" fill="white"/>
<path opacity="0.2" d="M153.195 116.337C152.493 116.952 91.2141 99.2248 88.675 113.157C86.1359 127.089 131.649 156.992 182.564 176.318C233.479 195.644 289.167 208.593 293.753 194.924C298.339 181.255 243.672 152.529 243.672 152.529L243.179 159.557C243.179 159.557 276.984 176.547 274.861 188.458C272.739 200.371 231.109 190.76 184.914 170.784C138.717 150.808 101.048 127.932 105.33 119.236C109.613 110.539 147.661 121.854 147.661 121.854L153.195 116.337Z" fill="#FFF2E7"/>
</g>
<path d="M210.561 383.23L210.055 206.052L199.788 204.911L186.985 207.192L188.271 379.532L199.416 381.751L210.561 383.23Z" fill="#2F2325"/>
<path d="M29.5172 278.615V292.022H120.063V278.615H29.5172Z" fill="#2F2325" stroke="#2F2325" stroke-width="1.79925" stroke-linecap="round" stroke-linejoin="round"/>
<path d="M38.8245 232.334H24.9379V285.978H38.8245V232.334Z" fill="#2F2325" stroke="#2F2325" stroke-width="1.79925" stroke-linecap="round" stroke-linejoin="round"/>
<path d="M44.608 286.209C44.608 287.821 44.2788 289.419 43.639 290.909C42.9992 292.398 42.0615 293.752 40.8795 294.892C39.6975 296.033 38.2944 296.936 36.7504 297.552C35.2064 298.168 33.5518 298.484 31.8811 298.482C31.4649 298.482 31.0485 298.482 30.6472 298.482C28.3314 298.261 26.1229 297.431 24.2615 296.082C22.4001 294.734 20.9572 292.919 20.0898 290.835C19.2223 288.749 18.9635 286.475 19.3414 284.258C19.7193 282.042 20.7195 279.967 22.2331 278.26C23.7469 276.554 25.7162 275.281 27.9269 274.58C30.1376 273.878 32.5052 273.775 34.7721 274.282C37.0391 274.79 39.1186 275.887 40.7846 277.456C42.4507 279.025 43.6394 281.004 44.2215 283.179C44.4754 284.17 44.6052 285.187 44.608 286.209Z" fill="#ECD6C4" stroke="#2F2325" stroke-width="0.8" stroke-linecap="round" stroke-linejoin="round"/>
<path d="M45.5447 240.602C45.5367 243.858 44.1929 246.977 41.8074 249.278C39.422 251.579 36.1894 252.872 32.8178 252.876C32.4014 252.876 31.9852 252.876 31.5688 252.876C29.252 252.662 27.0404 251.838 25.1747 250.494C23.3089 249.151 21.8605 247.339 20.9868 245.257C20.1132 243.174 19.8479 240.899 20.2198 238.681C20.5916 236.463 21.5864 234.385 23.0959 232.675C24.6054 230.965 26.5718 229.686 28.7812 228.98C30.9906 228.273 33.3584 228.165 35.627 228.667C37.8957 229.169 39.9782 230.263 41.6482 231.828C43.3181 233.393 44.5116 235.37 45.0986 237.545C45.3842 238.542 45.5341 239.569 45.5447 240.602Z" fill="#ECD6C4" stroke="#2F2325" stroke-width="0.8" stroke-linecap="round" stroke-linejoin="round"/>
<path d="M55.1345 221.826C55.1345 227.537 52.7849 233.014 48.6025 237.052C44.4202 241.09 38.7476 243.359 32.8328 243.359C32.0894 243.359 31.346 243.359 30.6472 243.272C26.5903 242.885 22.7213 241.43 19.4607 239.067C16.2 236.705 13.6725 233.524 12.1528 229.872C10.6332 226.219 10.1795 222.234 10.8411 218.35C11.5027 214.466 13.2543 210.832 15.9055 207.842C18.5566 204.852 22.006 202.62 25.8786 201.391C29.7513 200.161 33.899 199.979 37.8709 200.866C41.8429 201.753 45.4872 203.674 48.4076 206.42C51.3282 209.167 53.4131 212.632 54.4358 216.443C54.8969 218.203 55.1316 220.011 55.1345 221.826Z" fill="#ECD6C4" stroke="#2F2325" stroke-width="0.8" stroke-linecap="round" stroke-linejoin="round"/>
<path d="M65.4973 183.871L53.2989 204.246L52.6402 197.68L44.0965 206.569L58.3459 180.211L65.4973 183.871Z" fill="#2F2325" stroke="#2F2325" stroke-width="0.8" stroke-linecap="round" stroke-linejoin="round"/>
<path d="M68.4712 182.88L63.6094 191.709L52.7707 186.153L57.6176 177.311C58.3844 175.927 59.6872 174.892 61.2416 174.432C62.796 173.972 64.4756 174.125 65.914 174.856C67.3539 175.594 68.4318 176.853 68.9113 178.358C69.3907 179.862 69.2324 181.489 68.4712 182.88Z" fill="#ECD6C4" stroke="#2F2325" stroke-width="0.8" stroke-linecap="round" stroke-linejoin="round"/>
<path d="M56.651 204.859C56.889 203.366 56.663 201.837 56.0013 200.468C55.3397 199.099 54.2723 197.95 52.9342 197.167C51.5961 196.384 50.0474 196.001 48.484 196.068C46.9207 196.134 45.413 196.647 44.1517 197.541C42.8903 198.436 41.9322 199.671 41.3983 201.091C40.8643 202.512 40.7787 204.053 41.1523 205.519C41.5258 206.987 42.3417 208.315 43.4968 209.334C44.6518 210.353 46.094 211.019 47.6411 211.247C48.6672 211.4 49.7146 211.356 50.7231 211.117C51.7317 210.879 52.6816 210.451 53.5186 209.857C54.3555 209.263 55.063 208.517 55.6005 207.659C56.138 206.801 56.4949 205.849 56.651 204.859Z" fill="#ECD6C4" stroke="#2F2325" stroke-width="0.8" stroke-linecap="round" stroke-linejoin="round"/>
<path d="M35.2859 170.665L34.6317 207.069L26.5585 206.94L27.1978 170.535L35.2859 170.665Z" fill="#2F2325" stroke="#2F2325" stroke-width="0.8" stroke-linecap="round" stroke-linejoin="round"/>
<path d="M37.4718 168.469L37.3083 178.517L25.0274 178.23L25.191 168.182C25.2045 167.402 25.3768 166.634 25.698 165.92C26.0191 165.205 26.4828 164.559 27.0627 164.019C27.6426 163.477 28.3273 163.051 29.0775 162.765C29.8278 162.48 30.629 162.34 31.4355 162.353C32.2502 162.364 33.0544 162.531 33.8011 162.847C34.5478 163.162 35.2219 163.617 35.7841 164.186C36.3462 164.756 36.785 165.428 37.0748 166.163C37.3646 166.898 37.4996 167.682 37.4718 168.469Z" fill="#ECD6C4" stroke="#2F2325" stroke-width="0.8" stroke-linecap="round" stroke-linejoin="round"/>
<path d="M30.8407 208.089C35.2091 208.089 38.7504 204.67 38.7504 200.452C38.7504 196.234 35.2091 192.815 30.8407 192.815C26.4723 192.815 22.931 196.234 22.931 200.452C22.931 204.67 26.4723 208.089 30.8407 208.089Z" fill="#ECD6C4" stroke="#2F2325" stroke-width="0.8" stroke-linecap="round" stroke-linejoin="round"/>
<path d="M55.1348 221.826C55.1348 227.537 52.7851 233.014 48.6027 237.051C44.4203 241.09 38.7477 243.359 32.8329 243.359C32.0895 243.359 31.3461 243.359 30.6474 243.272C29.7929 240.087 29.7062 236.754 30.3939 233.531C31.0816 230.308 32.5255 227.279 34.6144 224.679C36.7034 222.078 39.3819 219.974 42.4444 218.529C45.5068 217.084 48.8715 216.336 52.2801 216.342C53.0086 216.342 53.7669 216.342 54.4657 216.443C54.9168 218.204 55.1415 220.012 55.1348 221.826Z" fill="#ECD6C4" stroke="#2F2325" stroke-width="0.8" stroke-linecap="round" stroke-linejoin="round"/>
<path d="M167.433 286.596C171.219 270.972 161.17 255.342 144.988 251.687C128.806 248.031 112.617 257.732 108.83 273.357C105.044 288.981 115.093 304.611 131.275 308.267C147.458 311.923 163.647 302.221 167.433 286.596Z" fill="#ECD6C4"/>
<path d="M301.65 373.07L312.779 381.088L346.007 338.093L334.878 330.075L301.65 373.07Z" fill="#2F2325" stroke="#2F2325" stroke-width="1.79925" stroke-linecap="round" stroke-linejoin="round"/>
<path d="M337.762 341.348L346.068 330.602L273.498 278.319L265.194 289.065L337.762 341.348Z" fill="#2F2325" stroke="#2F2325" stroke-width="1.79925" stroke-linecap="round" stroke-linejoin="round"/>
<path d="M330.369 326.546C331.37 325.251 332.626 324.158 334.064 323.331C335.503 322.505 337.096 321.959 338.754 321.727C340.411 321.495 342.098 321.581 343.721 321.979C345.343 322.377 346.869 323.08 348.21 324.049L349.176 324.809C350.896 326.323 352.152 328.264 352.809 330.419C353.466 332.575 353.498 334.863 352.902 337.036C352.306 339.208 351.104 341.18 349.428 342.739C347.751 344.298 345.664 345.383 343.393 345.876C341.123 346.369 338.756 346.252 336.549 345.536C334.343 344.822 332.382 343.536 330.88 341.82C329.377 340.103 328.391 338.022 328.028 335.802C327.666 333.583 327.94 331.31 328.823 329.231C329.222 328.278 329.741 327.376 330.369 326.546Z" fill="#ECD6C4" stroke="#2F2325" stroke-width="0.8" stroke-linecap="round" stroke-linejoin="round"/>
<path d="M301.332 360.898C303.217 358.195 306.137 356.326 309.449 355.701C312.761 355.076 316.195 355.748 318.995 357.567C319.337 357.782 319.664 358.026 319.991 358.27C321.786 359.701 323.141 361.579 323.907 363.701C324.673 365.824 324.822 368.108 324.338 370.306C323.853 372.504 322.753 374.531 321.158 376.167C319.564 377.804 317.534 378.987 315.291 379.588C313.048 380.188 310.678 380.184 308.438 379.575C306.197 378.965 304.173 377.774 302.585 376.131C300.997 374.488 299.906 372.456 299.431 370.256C298.956 368.056 299.114 365.773 299.89 363.654C300.25 362.681 300.735 361.755 301.332 360.898Z" fill="#ECD6C4" stroke="#2F2325" stroke-width="0.8" stroke-linecap="round" stroke-linejoin="round"/>
<path d="M263.115 376.276L284.038 378.261L284.829 370.489L263.905 368.504L263.115 376.276Z" fill="#2F2325" stroke="#2F2325" stroke-width="1.79925" stroke-linecap="round" stroke-linejoin="round"/>
<path d="M261.842 366.281L272.161 367.257L270.956 379.057L260.638 378.08C259.017 377.928 257.526 377.16 256.491 375.946C255.457 374.732 254.965 373.17 255.122 371.606C255.284 370.04 256.082 368.6 257.342 367.602C258.602 366.604 260.22 366.128 261.842 366.281Z" fill="#ECD6C4" stroke="#2F2325" stroke-width="0.8" stroke-linecap="round" stroke-linejoin="round"/>
<path d="M282.509 371.305C284.143 368.954 286.241 366.937 288.684 365.369C291.126 363.802 293.865 362.715 296.743 362.172C299.621 361.627 302.582 361.637 305.456 362.199C308.331 362.761 311.061 363.865 313.494 365.448C314.103 365.85 314.683 366.266 315.248 366.712C318.391 369.219 320.762 372.512 322.103 376.23C323.444 379.948 323.703 383.95 322.853 387.801C322.002 391.651 320.074 395.203 317.28 398.069C314.484 400.936 310.928 403.008 306.999 404.059C303.069 405.112 298.916 405.103 294.992 404.035C291.066 402.967 287.52 400.88 284.738 398.002C281.956 395.124 280.043 391.564 279.21 387.71C278.376 383.856 278.654 379.856 280.011 376.143C280.627 374.433 281.466 372.808 282.509 371.305Z" fill="#ECD6C4" stroke="#2F2325" stroke-width="0.8" stroke-linecap="round" stroke-linejoin="round"/>
<path d="M258.483 393.67L286.136 373.702L290.582 379.43L262.928 399.383L258.483 393.67Z" fill="#2F2325" stroke="#2F2325" stroke-width="1.79925" stroke-linecap="round" stroke-linejoin="round"/>
<path d="M255.613 393.369L263.21 387.813L269.961 396.426L262.363 401.924C261.17 402.786 259.672 403.155 258.196 402.951C256.721 402.746 255.391 401.985 254.498 400.833C253.642 399.693 253.278 398.276 253.487 396.883C253.695 395.488 254.458 394.228 255.613 393.369Z" fill="#ECD6C4" stroke="#2F2325" stroke-width="0.8" stroke-linecap="round" stroke-linejoin="round"/>
<path d="M294.195 379.86C294.546 378.386 294.436 376.844 293.878 375.43C293.322 374.016 292.342 372.795 291.063 371.919C289.786 371.044 288.268 370.554 286.701 370.513C285.135 370.473 283.591 370.881 282.266 371.689C280.941 372.496 279.894 373.665 279.258 375.047C278.622 376.43 278.425 377.964 278.694 379.454C278.962 380.945 279.682 382.325 280.764 383.419C281.846 384.514 283.239 385.274 284.769 385.603C286.807 386.04 288.941 385.682 290.707 384.607C292.473 383.531 293.727 381.824 294.195 379.86Z" fill="#ECD6C4" stroke="#2F2325" stroke-width="0.8" stroke-linecap="round" stroke-linejoin="round"/>
<path d="M308.855 413.738L312.959 386.349L319.039 387.181L314.95 414.57L308.855 413.738Z" fill="#2F2325" stroke="#2F2325" stroke-width="1.79925" stroke-linecap="round" stroke-linejoin="round"/>
<path d="M306.997 415.188L308.111 407.651L317.344 408.929L316.23 416.451C316.144 417.038 315.939 417.602 315.627 418.112C315.316 418.622 314.903 419.067 314.413 419.424C313.922 419.779 313.365 420.039 312.77 420.186C312.177 420.334 311.558 420.368 310.952 420.284C309.727 420.113 308.624 419.481 307.882 418.526C307.141 417.57 306.823 416.37 306.997 415.188Z" fill="#ECD6C4" stroke="#2F2325" stroke-width="0.8" stroke-linecap="round" stroke-linejoin="round"/>
<path d="M321.418 385.387C320.719 384.334 319.711 383.505 318.522 383.004C317.335 382.504 316.02 382.354 314.745 382.574C313.468 382.795 312.289 383.375 311.356 384.243C310.421 385.11 309.774 386.225 309.496 387.448C309.218 388.67 309.321 389.945 309.792 391.11C310.265 392.275 311.083 393.28 312.145 393.996C313.209 394.713 314.467 395.11 315.762 395.135C317.059 395.161 318.333 394.817 319.426 394.143C320.892 393.237 321.925 391.805 322.298 390.163C322.672 388.521 322.355 386.804 321.418 385.387Z" fill="#ECD6C4" stroke="#2F2325" stroke-width="0.8" stroke-linecap="round" stroke-linejoin="round"/>
<path d="M281.483 410.092L299.919 381.899L306.178 385.689L287.758 413.896L281.483 410.092Z" fill="#2F2325" stroke="#2F2325" stroke-width="1.79925" stroke-linecap="round" stroke-linejoin="round"/>
<path d="M278.703 410.781L283.743 403.029L293.274 408.771L288.218 416.537C287.423 417.752 286.162 418.614 284.71 418.934C283.258 419.254 281.735 419.007 280.472 418.246C279.215 417.48 278.322 416.265 277.991 414.866C277.66 413.467 277.915 411.998 278.703 410.781Z" fill="#ECD6C4" stroke="#2F2325" stroke-width="0.8" stroke-linecap="round" stroke-linejoin="round"/>
<path d="M309.747 384.856C309.526 383.361 308.851 381.963 307.806 380.84C306.762 379.716 305.395 378.917 303.879 378.544C302.364 378.172 300.768 378.241 299.294 378.746C297.82 379.25 296.535 380.166 295.599 381.377C294.665 382.587 294.125 384.039 294.046 385.547C293.967 387.055 294.355 388.552 295.158 389.847C295.962 391.142 297.145 392.178 298.56 392.823C299.973 393.468 301.554 393.693 303.101 393.469C305.164 393.174 307.021 392.103 308.267 390.488C309.513 388.874 310.045 386.848 309.747 384.856Z" fill="#ECD6C4" stroke="#2F2325" stroke-width="0.8" stroke-linecap="round" stroke-linejoin="round"/>
<path d="M143.723 292.969C151.157 289.976 154.67 281.729 151.569 274.552C148.469 267.373 139.929 263.982 132.494 266.975C125.059 269.969 121.545 278.214 124.646 285.393C127.747 292.572 136.288 295.963 143.723 292.969Z" fill="#2F2325" stroke="#2F2325" stroke-width="1.79925" stroke-linecap="round" stroke-linejoin="round"/>
<path d="M275.593 304.912C289.567 296.226 293.604 278.248 284.608 264.755C275.612 251.263 256.991 247.365 243.017 256.05C229.041 264.736 225.006 282.715 234.002 296.208C242.997 309.7 261.619 313.597 275.593 304.912Z" fill="#ECD6C4"/>
<path d="M272.574 286.362C275.933 279.293 272.72 270.934 265.397 267.691C258.076 264.449 249.418 267.551 246.06 274.62C242.701 281.69 245.914 290.049 253.236 293.292C260.558 296.534 269.216 293.432 272.574 286.362Z" fill="#2F2325" stroke="#2F2325" stroke-width="1.79925" stroke-linecap="round" stroke-linejoin="round"/>
<path d="M267.474 222.4C277.853 209.833 284.35 194.695 286.215 178.723C288.08 162.751 285.238 146.595 278.016 132.114C270.793 117.632 259.484 105.414 245.389 96.8617C231.294 88.3101 214.985 83.7735 198.338 83.7735C181.691 83.7735 165.381 88.3101 151.286 96.8617C137.191 105.414 125.882 117.632 118.659 132.114C111.437 146.595 108.595 162.751 110.46 178.723C112.325 194.695 118.821 209.833 129.202 222.4H267.474Z" fill="#ECD6C4"/>
<g filter="url(#filter0_f_0_1)">
<path d="M253.249 188.278C267.208 188.278 278.524 178.316 278.524 166.028C278.524 153.739 267.208 143.777 253.249 143.777C239.29 143.777 227.973 153.739 227.973 166.028C227.973 178.316 239.29 188.278 253.249 188.278Z" fill="#FEAFBE"/>
</g>
<g filter="url(#filter1_f_0_1)">
<path d="M143.226 188.278C157.185 188.278 168.501 178.316 168.501 166.028C168.501 153.739 157.185 143.777 143.226 143.777C129.267 143.777 117.951 153.739 117.951 166.028C117.951 178.316 129.267 188.278 143.226 188.278Z" fill="#FEAFBE"/>
</g>
<path d="M252.457 136.929H142.047C135.33 136.929 129.886 142.186 129.886 148.672V186.454C129.886 192.939 135.33 198.196 142.047 198.196H252.457C259.173 198.196 264.619 192.939 264.619 186.454V148.672C264.619 142.186 259.173 136.929 252.457 136.929Z" fill="#CC8373"/>
<path d="M144.456 165.079C145.917 161.132 148.577 157.703 152.091 155.241C155.605 152.779 159.807 151.399 164.146 151.283C168.486 151.166 172.761 152.319 176.411 154.588C180.06 156.859 182.915 160.14 184.599 164.003" stroke="#2F2325" stroke-width="8.99623" stroke-linecap="round" stroke-linejoin="round"/>
<path d="M211.049 165.079C212.509 161.132 215.171 157.703 218.684 155.241C222.198 152.779 226.4 151.399 230.74 151.283C235.079 151.166 239.354 152.319 243.003 154.588C246.653 156.859 249.508 160.14 251.193 164.003" stroke="#2F2325" stroke-width="8.99623" stroke-linecap="round" stroke-linejoin="round"/>
<path d="M186.711 179.276C187.084 182.123 188.52 184.741 190.75 186.638C192.979 188.535 195.848 189.582 198.821 189.582C201.793 189.582 204.662 188.535 206.892 186.638C209.121 184.741 210.557 182.123 210.931 179.276H186.711Z" fill="#ECD6C4" stroke="#2F2325" stroke-width="1.79925" stroke-linecap="round" stroke-linejoin="round"/>
<path d="M198.68 124.827C205.453 124.829 212.118 123.193 218.068 120.069C224.018 116.945 229.063 112.431 232.742 106.942L241.128 94.4096C227.839 87.3245 212.886 83.6622 197.708 83.7754C182.528 83.8885 167.635 87.7733 154.463 95.0556L167.085 110.185C170.883 114.752 175.692 118.437 181.16 120.972C186.628 123.506 192.615 124.824 198.68 124.827Z" fill="#CC8373"/>
<path d="M257.709 243.172C238.783 239.052 197.806 237.573 197.806 237.573C187.934 237.875 160.459 239.009 141.531 243.186C137.949 243.972 134.831 246.09 132.854 249.081C130.879 252.072 130.203 255.695 130.976 259.164L148.505 338.346C149.366 342.185 151.561 345.625 154.724 348.095C157.888 350.565 161.832 351.917 165.901 351.926H233.474C237.543 351.917 241.487 350.565 244.651 348.095C247.814 345.625 250.009 342.185 250.87 338.346L268.384 259.164C269.154 255.677 268.463 252.038 266.463 249.042C264.463 246.046 261.316 243.935 257.709 243.172Z" fill="#ECD6C4"/>
<path d="M249.086 241.65C228.554 238.693 197.851 237.573 197.851 237.573C182.818 237.989 167.82 239.187 152.921 241.163L172.785 351.926H226.77L249.086 241.65Z" fill="#CC8373"/>
<path d="M215.574 261.647H182.686C175.969 261.647 170.524 266.904 170.524 273.39V288.893C170.524 295.378 175.969 300.635 182.686 300.635H215.574C222.291 300.635 227.736 295.378 227.736 288.893V273.39C227.736 266.904 222.291 261.647 215.574 261.647Z" fill="#ECD6C4"/>
<path d="M189.525 277.71H180.263V286.653H189.525V277.71Z" fill="#ECD6C4" stroke="#2F2325" stroke-width="0.8" stroke-linecap="round" stroke-linejoin="round"/>
<path d="M203.754 277.71H194.491V286.653H203.754V277.71Z" fill="#ECD6C4" stroke="#2F2325" stroke-width="0.8" stroke-linecap="round" stroke-linejoin="round"/>
<path d="M217.997 277.71H208.735V286.653H217.997V277.71Z" fill="#ECD6C4" stroke="#2F2325" stroke-width="0.8" stroke-linecap="round" stroke-linejoin="round"/>
<defs>
<filter id="filter0_f_0_1" x="218.977" y="134.781" width="68.5433" height="62.4931" filterUnits="userSpaceOnUse" color-interpolation-filters="sRGB">
<feFlood flood-opacity="0" result="BackgroundImageFix"/>
<feBlend mode="normal" in="SourceGraphic" in2="BackgroundImageFix" result="shape"/>
<feGaussianBlur stdDeviation="4.49811" result="effect1_foregroundBlur_0_1"/>
</filter>
<filter id="filter1_f_0_1" x="108.954" y="134.781" width="68.5433" height="62.4931" filterUnits="userSpaceOnUse" color-interpolation-filters="sRGB">
<feFlood flood-opacity="0" result="BackgroundImageFix"/>
<feBlend mode="normal" in="SourceGraphic" in2="BackgroundImageFix" result="shape"/>
<feGaussianBlur stdDeviation="4.49811" result="effect1_foregroundBlur_0_1"/>
</filter>
</defs>
</svg>
